<svg xmlns="http://www.w3.org/2000/svg" viewBox="0 0 112.24 100.29"><defs><style>.cls-1{fill:#302d5c;}</style></defs><title>oseznos-ico</title><g id="Capa_2" data-name="Capa 2"><g id="Capa_1-2" data-name="Capa 1"><path class="cls-1" d="M62.51,69.2V68.09l-.94,1.09Z"/><path class="cls-1" d="M109.83,60.65c-3.28-.52-6.61-1-9.9-1.42l-1.27-.17-1,.85-1.85,1.62-2.08-2.31L93,58.41l-1.08-.12c-2.39-.25-25.74-4.08-71.15,0l-1.09.12-.74.81-2.08,2.3L15,59.85l-1-.85-1.27.16c-2.39.31-4.81.64-7.19,1l-1,.15-.69.8L.69,64.79l-.69.8v15.1l1,.86,3.15,2.68,1,.85,1.29-.19c2.34-.35,4.71-.68,7.06-1l1.07-.13.48-.54v.47l3.18-.36c3.23-.37,6.52-.69,9.76-1l1.11-.09.57-.62v.54l3-.19c4.71-.31,9.5-.54,14.24-.69l.77,0h.79c2.59,0,5.22-.07,7.82-.07,1.92,0,3.87,0,5.8,0h.41l1.16,0c2.55.06,3.79.1,6.32.2l2.42.1h0l1.69.09c2.15.11,3.21.18,5.37.33l3.06.21v-.56l.57.62,1.11.09c2.35.19,4.73.42,7.09.67l1.26.13.94-.84v.93l2.52.31c3.24.38,6.52.82,9.74,1.3l1.29.19,1-.85,3.15-2.68,1-.86V61ZM13.47,81.16c-2.37.3-4.75.63-7.12,1L3.19,79.45V66.73c1.26-1.47,1.89-2.21,3.16-3.67,2.37-.35,4.75-.68,7.12-1l3.18,2.79V77.59Zm17.8-14.51c-1.91.14-2.87.22-4.78.39V65.45c-1.39.12-2.09.19-3.49.33v1.74c2.76.59,5.51,1.2,8.27,1.83v6.84l-3.19,3.43c-3.28.28-6.57.6-9.85,1V74.23c1.91-.22,2.86-.32,4.77-.5v1.58L26.49,75V73.24q-4.12-.88-8.26-1.71V64.69c1.27-1.42,1.91-2.12,3.18-3.52,3.28-.34,6.57-.64,9.86-.88Zm15.93,0c-1.91,0-2.87.08-4.78.16V64.42l-3.19.14v3.18l3.19-.14v3.18l-3.19.14V74.1L42.42,74V71.57c1.91-.08,2.87-.11,4.78-.16v7.15c-4.79.16-9.56.39-14.34.7V74.49l1.59-.11V64.84L32.86,65V60.18c4.78-.31,9.55-.54,14.34-.7ZM62.51,78.49q-6.85-.09-13.72,0V73.75q4.07-4.83,8.17-9.62H53.58v1.59c-1.92,0-2.87,0-4.79.07V59.44q6.87-.12,13.72,0v4.77q-4.09,4.72-8.13,9.49h3.34V72.08c1.92,0,2.88,0,4.79,0ZM80,65l-1.59-.11v9.54l1.59.11v4.77c-2.17-.15-3.25-.22-5.42-.34-1.37-2.86-2.76-5.73-4.14-8.59v8.4c-2.55-.11-3.83-.15-6.38-.21V73.75l1.6,0V64.25l-1.6,0V59.44c2.17.05,3.26.09,5.42.17q2.08,4.28,4.15,8.55V59.79c2.55.13,3.82.21,6.37.39Zm15.1,12.51L92,80.3c-2.38-.26-4.76-.48-7.15-.68-1.27-1.38-1.91-2.06-3.18-3.43V63.47l3.18-2.93c2.39.2,4.77.42,7.15.68,1.28,1.4,1.91,2.11,3.18,3.52Zm14.57-7.55c-1.9-.3-2.84-.44-4.74-.72V67.6l-3.49-.48v1.75q4.14,1.83,8.23,3.74v6.84l-3.16,2.69q-4.9-.72-9.82-1.31V74.47c1.9.23,2.85.35,4.75.6v1.59l3.49.48V75.39c-2.74-1.24-5.48-2.44-8.24-3.62V64.93l3.17-2.79q4.92.63,9.81,1.41Z"/><path class="cls-1" d="M7.93,77.14c1.58-.23,2.37-.33,4-.54V67.06c-1.59.21-2.38.31-4,.54Z"/><path class="cls-1" d="M86.4,75c1.59.14,2.39.21,4,.37V65.82c-1.59-.16-2.39-.23-4-.37Z"/><path class="cls-1" d="M7.2,65l-2,2.26v11L7.2,80c2.17-.32,3.25-.46,5.42-.75l2-2.22V66l-2-1.72C10.45,64.54,9.37,64.69,7.2,65ZM14,76.81,12.36,78.6c-2,.26-2.94.39-4.9.68L5.87,77.92V67.43L7.46,65.6c2-.28,2.94-.42,4.9-.67L14,66.31Z"/><path class="cls-1" d="M20.3,65.32v4.61q4.14.87,8.26,1.8v3.56L27,77c-2.42.21-3.62.33-6,.58V75.53l-.63.06V78.3c2.77-.3,4.15-.43,6.93-.67.78-.86,1.18-1.29,2-2.14V71.2q-4.12-.95-8.27-1.81V65.51l1.59-1.75c2.42-.25,3.62-.36,6-.55v2.06l.64,0v-2.7c-2.78.22-4.16.35-6.93.63C21.48,64,21.08,64.45,20.3,65.32Z"/><path class="cls-1" d="M36.52,76.32l-2.07.13v.63c3.56-.21,7.11-.39,10.68-.52v-3.5l-.64,0v2.86c-2.44.09-4.89.2-7.33.34V69.76l3.66-.19v-.63c-1.46.07-2.2.1-3.66.19V62.61c2.44-.14,4.89-.26,7.33-.34v2.86l.64,0v-3.5c-3.57.14-7.12.31-10.68.53v.63l2.07-.13Z"/><path class="cls-1" d="M51.5,75.77V74.28Q56,69,60.44,63.83V61.45q-4.78-.06-9.57,0v2.7h.63V62.1c2.77,0,5.53,0,8.3,0v1.49Q55.32,68.79,50.87,74v2.39c3.19-.06,6.38-.06,9.57,0v-2.7H59.8v2.07C57,75.74,54.27,75.74,51.5,75.77Z"/><path class="cls-1" d="M65.7,61.55v.64l2.07.06V75.92l-2.07-.06v.64l2.71.08V62.65Q72,69.78,75.55,76.91l2.9.17v-.63l-2.07-.13V62.64l2.07.13v-.63L75.74,62V75.9q-3.55-7.14-7.14-14.26Z"/><path class="cls-1" d="M85.67,62.68l-2,1.81v11l2,2.14c2.18.18,3.26.29,5.44.51.78-.71,1.18-1.06,2-1.76v-11l-2-2.18C88.93,63,87.85,62.87,85.67,62.68Zm6.77,13.37-1.59,1.43c-2-.2-2.95-.3-4.92-.47l-1.6-1.72V64.79l1.6-1.45c2,.17,2.95.26,4.92.46l1.59,1.76Z"/><path class="cls-1" d="M98.79,70.65c2.76,1.21,5.5,2.44,8.23,3.71v3.56l-1.58,1.36c-2.4-.35-3.61-.52-6-.82V76.39l-.63-.08V79c2.76.35,4.15.54,6.9.94l2-1.68V74c-2.74-1.27-5.48-2.51-8.24-3.73V66.37L101,65c2.41.32,3.61.49,6,.85v2.07l.64.09V65.3c-2.76-.42-4.14-.62-6.91-1l-2,1.72Z"/><path class="cls-1" d="M76.81,15.83l.9,1.1.17-.31c-.25-.21-.5-.41-.76-.6A1.61,1.61,0,0,0,76.81,15.83Z"/><path class="cls-1" d="M82.34,28a16.59,16.59,0,0,0-2.75-4.14,26.24,26.24,0,0,1,1.25,7.3A25.16,25.16,0,0,1,80,38.55a26.68,26.68,0,0,0-1.83-7.72,21.21,21.21,0,0,1-2.58,10.26c0-.15,0-.21,0-.28A15.81,15.81,0,0,0,74.77,36a.75.75,0,0,1,0-.42,8.39,8.39,0,0,0,.48-2.48.73.73,0,0,0-.17-.49,4.4,4.4,0,0,0-2.85-1.37l0,.06-.32-.06-.1,0-.07,0h-.17a9.7,9.7,0,0,0-2.55.46,12.59,12.59,0,0,1-3.39.51H65a14,14,0,0,1-7.31-2.61,16.37,16.37,0,0,1-4.44-4.79,1.76,1.76,0,0,0-.14-.23c-.1-.15-.07-.24.08-.34a8.07,8.07,0,0,0,3.24-4.5c0-.07,0-.14,0-.21a.43.43,0,0,0,0-.1c-.1.09-.17.17-.25.25a8,8,0,0,1-4.67,2.9,10.08,10.08,0,0,1-1.72.15,7.88,7.88,0,0,1-7.5-4.94c-.25-.58-.41-1.19-.62-1.79,0-.06-.05-.12-.09-.21l-.09.2a21.33,21.33,0,0,0-.46,6.42,49.47,49.47,0,0,0,3,13.37.51.51,0,0,0,.17.24c.06-.34.11-.67.17-1a14.18,14.18,0,0,1,1.91-5.26,7.7,7.7,0,0,1,2.3-2.42s.05,0,.11,0a2.26,2.26,0,0,1,0,.35,35.46,35.46,0,0,0,.1,5.92,22,22,0,0,0,1,4.89,12.54,12.54,0,0,0,2.74,4.74,8,8,0,0,0,5.16,2.54,10.28,10.28,0,0,0,1.1.06,15.26,15.26,0,0,0,5.51-1.15c1.44-.55,2.87-1.15,4.31-1.7a11,11,0,0,1,3.87-.78c.23,0,.47,0,.7,0a4.72,4.72,0,0,1,2.29.63,3,3,0,0,1,.76.74,1.31,1.31,0,0,1,.11,1.34,1.82,1.82,0,0,0-.15.41c1.27-.73,1.64-2,2-3.29a12.67,12.67,0,0,1-.75,4.13l.06,0c.08-.07.17-.12.25-.2a11.4,11.4,0,0,0,2.47-3.59,19.62,19.62,0,0,0,1.77-6.72c.13-1.45.15-2.92.21-4.38a1.15,1.15,0,0,1,0-.31,14.32,14.32,0,0,1,1.74,4.34h.1l.22-2V30.1c-.09-.68-.15-1.37-.26-2.05a19.34,19.34,0,0,0-4.44-9.62,16.63,16.63,0,0,0-1.56-1.58l-.38.16C80.29,20.22,82.14,23.74,82.34,28Zm-30-2.07a17,17,0,0,0,2.57,2.83h.15a2.08,2.08,0,0,1,1.37,1.15l.42.28a2.32,2.32,0,0,0-.28.24V31a1.23,1.23,0,0,1,.74-.23,2.18,2.18,0,0,1,.43.05,3.89,3.89,0,0,1,1.65.91.37.37,0,0,1,.12.26c0,.52,0,1.05,0,1.57a.52.52,0,0,1-.18.36A5.71,5.71,0,0,0,58,35.43l-.14.2a10.54,10.54,0,0,1-1.63-2.2,3.13,3.13,0,0,0,0,.36.41.41,0,0,1,0,.25l-.79.83a10.25,10.25,0,0,1-1.37-2.26,1.1,1.1,0,0,0,0,.32c0,.09,0,.21,0,.26-.21.21-.45.4-.69.61l-.17-.2a6.76,6.76,0,0,1-1.14-3.72,1.14,1.14,0,0,1,.68-1,.51.51,0,0,1,.2,0c.33,0,.53.26.74.51a1,1,0,0,1,.12.17l.1-.18a1.94,1.94,0,0,0-.64-1,.73.73,0,0,0-.43-.14.68.68,0,0,0-.56.31c-.09.13-.17.28-.25.41A6.81,6.81,0,0,1,52.34,25.94ZM74.76,40.58c-.05.37-.06.49-.23.49a2.25,2.25,0,0,1-.38-.07c-.41-.1-.84-.13-.85-.72a.8.8,0,0,1-.54.27.5.5,0,0,1-.25-.07,3.76,3.76,0,0,1-.5-.31l0,0-.06.14.22.39-.49.07a.89.89,0,0,1-.64.29,1.07,1.07,0,0,1-.48-.12l0,0-.57.09a33.91,33.91,0,0,0-5.12,1.64,22.08,22.08,0,0,1-5.47,1.5,9.24,9.24,0,0,1-1.05.06,6.49,6.49,0,0,1-5.74-3.18c-.19-.27-.35-.57-.53-.87a3.42,3.42,0,0,0,1.64-.53,1.31,1.31,0,0,1,.06-.27l-.42.17a1.91,1.91,0,0,1-.6.11,1,1,0,0,1-1.08-1s0,0-.05-.06l-.16.17c0-.08-.06-.13-.08-.18-.2-.93-.41-1.86-.6-2.8a.51.51,0,0,1,.07-.36c.33-.53.67-1.06,1-1.57a4.08,4.08,0,0,1,.55-.55c.17.3.29.56.45.81a.45.45,0,0,1,0,.46c-.14.27-.24.57-.36.86.31-.31.52-.67.8-1a10.58,10.58,0,0,1,.93-.83c.26.57.49,1.09.74,1.59a.6.6,0,0,1,0,.54,4.64,4.64,0,0,0-.2.73l.08,0a4.38,4.38,0,0,1,1.58-2c.32.56.61,1.09.92,1.59a.54.54,0,0,1,.08.49,6.52,6.52,0,0,0-.16.69c.35-.57.64-1.09,1-1.57a4.68,4.68,0,0,1,1.32-1.22,1.91,1.91,0,0,1,.07.24,12.88,12.88,0,0,0,.9,3.09.42.42,0,0,1,0,.33c-.2.53-.42,1-.64,1.56a.46.46,0,0,1-.13.2,3.46,3.46,0,0,1-1.58.75,1.1,1.1,0,0,1-.26,0,1,1,0,0,1-1-.64l-.13.14-.14.14a.17.17,0,0,0,0,.07.92.92,0,0,0,.93,1h.16a2.59,2.59,0,0,0,1-.34,6.7,6.7,0,0,0,.82-.61v-.22l.11.12.09-.07,0,.16.05.06a10.76,10.76,0,0,1,3-4,2.58,2.58,0,0,1,.2.29,7.61,7.61,0,0,1,.94,3.29,1.05,1.05,0,0,0,.69.88.68.68,0,0,0,.27.07.63.63,0,0,0,.36-.13,1.28,1.28,0,0,0,.44-.74,1.38,1.38,0,0,1,0-.2l-.07.11a.86.86,0,0,1-.71.46,1,1,0,0,1-.55-.19.5.5,0,0,1-.19-.36A9.62,9.62,0,0,0,64,38.2v0l0,0-.07-.18,0,0a9.61,9.61,0,0,0-.56-1.64,1.41,1.41,0,0,1-.08-1.1,7,7,0,0,0,.16-1l-.09,0a1.4,1.4,0,0,0-.1.16,5.63,5.63,0,0,1-1.45,2.27,10.47,10.47,0,0,0-.88,1.09c-.6-1.18-1-4.85-.64-5.56.61.19,1.2.42,1.81.57a1.64,1.64,0,0,1,1.12.82s0,.06.15.14l-.09-.68.93.13-.63.55,0,.07a2.54,2.54,0,0,1,1.15-.39,1.14,1.14,0,0,1,1,.59l.06-.14-.32-.6h.13c.25,0,.51,0,.76,0a1.2,1.2,0,0,1,.69-.22h0a1.57,1.57,0,0,1,.3,0c.86-.18,1.71-.44,2.56-.67a6.18,6.18,0,0,1,1.53-.2l.61,0,0-.17.12.18.27,0a5.1,5.1,0,0,1,1.66.56,1.68,1.68,0,0,0-1.06.69l.1.14h0a1.43,1.43,0,0,1,.94-.42h.14c.18,0,.28.09.28.29A8.57,8.57,0,0,1,74.16,36c-.1.35-.24.69-.36,1a5.31,5.31,0,0,0-.7-1.57c.3.57,0,1-.35,1.37l-.19.23.06.14.75-.68c.1.83.2,1.62.3,2.41.16-.79.1-1.64.76-2.28,0,.11.08.22.11.33A10.62,10.62,0,0,1,74.76,40.58Z"/><path class="cls-1" d="M56.26,31.29c0-.06.09-.11.13-.16L56.22,31a2.45,2.45,0,0,0-.11.43Z"/><path class="cls-1" d="M61.44,52.68c-.52-.23-1-.48-1.55-.76.26.26.53.51.81.76Z"/><path class="cls-1" d="M73,44l-.61,0a10.92,10.92,0,0,0-3.6.75c-1.53.53-3,1.09-4.6,1.55a21.05,21.05,0,0,1-5.65.91h-.2a8.17,8.17,0,0,1-5.86-2.47,13.46,13.46,0,0,1-3.83-7.13c-.16-.73-.24-1.49-.35-2.23a.39.39,0,0,0-.08-.2,17.9,17.9,0,0,0,.54,6.1,16.43,16.43,0,0,0,6,8.88,18.25,18.25,0,0,0,4.43,2.58,15,15,0,0,0,1.59.56c-.21-.18-.42-.36-.62-.55a9,9,0,0,1-1.76-2.07,26.78,26.78,0,0,0,4,2.08A45.58,45.58,0,0,0,69.88,55c-.62-.67-1.21-1.25-1.74-1.88l-.22-.27a8.61,8.61,0,0,1-1.08-1.91c.08.05.12.06.14.09a8.46,8.46,0,0,0,2.07,1.86,12.24,12.24,0,0,0,1.9,1c1.1.46,2.22.85,3.33,1.27l.12.06h.17c-.19-.35-.4-.69-.58-1a9.43,9.43,0,0,1-.47-1.09,6.24,6.24,0,0,1-.32-3,2.11,2.11,0,0,1,.12-.48,4.5,4.5,0,0,0,1,2.62l.07,0c0-.14,0-.28,0-.42a7.45,7.45,0,0,1,.49-2.8,18.84,18.84,0,0,0,.51-2A2.43,2.43,0,0,0,73,44Z"/><path class="cls-1" d="M30.53,5.68a7.52,7.52,0,0,0-1.65,1.53,9.08,9.08,0,0,1,5.38-5.56h-.67c-.22,0-.45,0-.68.05l0-.09c.54-.17,1.07-.37,1.62-.49A9.47,9.47,0,0,1,36.73.87,10.9,10.9,0,0,1,41.8,2.2a13.82,13.82,0,0,1,3.13,2.23.33.33,0,0,0,.22.12.32.32,0,0,0,.19-.07,17,17,0,0,1,7.1-2.57,17.85,17.85,0,0,1,2.18-.14,14.3,14.3,0,0,1,6.89,1.71,12.58,12.58,0,0,1,2.63,1.9,1.8,1.8,0,0,0,.2.19l.06-.05c-.25-.33-.47-.67-.74-1A10.53,10.53,0,0,0,58.3,1.37a15.51,15.51,0,0,0-4-.53,18.1,18.1,0,0,0-4,.46A19.06,19.06,0,0,0,45.58,3a.27.27,0,0,1-.14,0,.39.39,0,0,1-.24-.12A14,14,0,0,0,39.55.25c-.47-.1-1-.17-1.44-.25H36a.45.45,0,0,1-.11,0A11.48,11.48,0,0,0,30,2.5c-.22.17-.41.36-.61.54l0,0,1.76-.51c0,.08,0,.1,0,.11A6.8,6.8,0,0,0,28.2,6.78c-.16.55-.24,1.11-.36,1.67v2.1a1.43,1.43,0,0,0,.2-.3c.27-.63.53-1.26.79-1.88A1.56,1.56,0,0,1,29.08,8a8.73,8.73,0,0,0,2.84,8.1,12.83,12.83,0,0,1-2-5.06A11.12,11.12,0,0,1,30.53,5.68Z"/><path class="cls-1" d="M29.74,24.07a28.79,28.79,0,0,0-.4,5.63,31.28,31.28,0,0,0,1.24,8.22,1.11,1.11,0,0,0,.14.34,28.15,28.15,0,0,1,.79-5.67c.13.92.25,1.79.4,2.65a25.21,25.21,0,0,0,1.3,4.64,19.88,19.88,0,0,0,3.31,5.64,17.55,17.55,0,0,0,5.28,4.21.5.5,0,0,0,.19,0h0a11.2,11.2,0,0,1-2.62-4.85l.12.06a15.47,15.47,0,0,0,4.4,2.87c1.43.65,2.88,1.26,4.37,1.77,1.95.65,3.94,1.18,5.91,1.77l.17,0a.34.34,0,0,0,.14,0l-.14-.08a15,15,0,0,1-7-6,20.15,20.15,0,0,1-2.72-7,.62.62,0,0,0-.11-.25,17.45,17.45,0,0,0,.14,4.21,14.86,14.86,0,0,0,1.17,4.06l0,0-.27-.1a14.24,14.24,0,0,1-5.78-5.07,15.8,15.8,0,0,1-2.47-6.27c-.18-1-.24-2-.36-2.95a.63.63,0,0,0-.08-.29c-1,3.14-.76,6.31-.26,9.51l-.36-.82c-.12-.29-.25-.58-.36-.87a23.79,23.79,0,0,1-1.2-5,26.4,26.4,0,0,1-.07-6.09,28.84,28.84,0,0,1,1.54-6.93.31.31,0,0,0,0-.19,20,20,0,0,0-3.37,8.32c-.06-.52-.14-1-.19-1.56a22.29,22.29,0,0,1,.91-9.14c.06-.2.13-.4.2-.6l-1.46-1.38A23.34,23.34,0,0,0,29.74,24.07Z"/><path class="cls-1" d="M38.1,10.69a24.53,24.53,0,0,1,3.65-3.48L42,7.05c.37-.26.38-.27.11-.6a6.75,6.75,0,0,0-2.78-2.3A6.72,6.72,0,0,0,37,3.72a5.86,5.86,0,0,0-2.82.74,3.23,3.23,0,0,0-.77.62,5.78,5.78,0,0,1,2.22-.53l.51,0a5,5,0,0,0-3.7,2A4.6,4.6,0,0,0,31.59,9c.16-.26.3-.54.48-.79a7.32,7.32,0,0,1,.59-.66l.05,0c-.06.37-.15.74-.19,1.11A6.61,6.61,0,0,0,34,13.6a.39.39,0,0,1,0,.58,20.53,20.53,0,0,0-1.48,2.19l1.18,1.85A23.59,23.59,0,0,1,38.1,10.69Z"/><path class="cls-1" d="M33.67,18.3l0-.08-1.18-1.85-.11.19.49.75-.6-.56-.09.17Z"/><path class="cls-1" d="M32.41,16.56l-.11.19.6.56Z"/><path class="cls-1" d="M72.76,29.55a3.11,3.11,0,0,0,1.89-1,.38.38,0,0,0,0-.57,5.35,5.35,0,0,1-.59-4.63c0,.49,0,1.07,0,1.66a4,4,0,0,0,.57,1.88.83.83,0,0,0,.65.47A.89.89,0,0,0,76,27c.16-.17.29-.36.48-.59a11.21,11.21,0,0,1-.5,6.21l.08,0,.17-.24a12.67,12.67,0,0,0,2-7c0-.7-.12-1.39-.19-2.09-.06-.52-.11-1-.17-1.56a4,4,0,0,0-1.45-2.87,5.75,5.75,0,0,0-2.28-1l-.15.48-.42-.29L73,17.72a12.25,12.25,0,0,0-1.48-.09,12.66,12.66,0,0,0-4.74.93l-.31.15,0,.07.31-.07a15.62,15.62,0,0,1,4.12-.56c.4,0,.79,0,1.19.05a5.8,5.8,0,0,1,3.05.92,2,2,0,0,1,.74.87c-.35-.09-.64-.17-.93-.23a13.26,13.26,0,0,0-2.57-.26,14.5,14.5,0,0,0-3.85.55,3.13,3.13,0,0,1-.88.13,2.35,2.35,0,0,1-1.83-.88.17.17,0,0,0-.06-.06l-.1,0a7.87,7.87,0,0,0-.39.7,6,6,0,0,0,.16,5,7,7,0,0,0,.91,1.48,2.38,2.38,0,0,0,1.87.9,2.44,2.44,0,0,0,2-1,5.14,5.14,0,0,0,.84-2.9v-.38a4.41,4.41,0,0,1-.6,3.86,2.72,2.72,0,0,1-2,1.05c-.12,0-.23,0-.42,0,.15.14.24.25.35.34a6.7,6.7,0,0,0,3.14,1.41.39.39,0,0,1,.25.22,4.53,4.53,0,0,1,.09.74,2.45,2.45,0,0,1,0,.27H72a6.55,6.55,0,0,0,.29-.85A.52.52,0,0,1,72.76,29.55Z"/><path class="cls-1" d="M71.86,30.89l.1,0,0,0h-.12Z"/><path class="cls-1" d="M70.11,3.64a.51.51,0,0,1-.25.06.22.22,0,0,1-.12,0A11.86,11.86,0,0,0,64.1,2.35l-.88,0a11.71,11.71,0,0,0-1.31.16h.22A13,13,0,0,1,73.55,8.47c-.25,0-.42.06-.58.1a2.29,2.29,0,0,1-.48.08h0l.59-.53-.47,0a2.52,2.52,0,0,0-1.89.71,3,3,0,0,0-.82,2.27c.35-.95.66-1.9,1.82-2.24l-.39,1,.07.06a4.38,4.38,0,0,1,2.21-.69,3.44,3.44,0,0,1,.63.06,5.57,5.57,0,0,1,1,.36H73.92l0,.06a.61.61,0,0,0,.14.1,3.73,3.73,0,0,1,2.28,2.63,8.16,8.16,0,0,1,.33,2.31,1,1,0,0,0,0,.33,7.36,7.36,0,0,0,1.47-3.21,11.42,11.42,0,0,0,0-3.55,3.64,3.64,0,0,1,.63,1.22,4.09,4.09,0,0,0-.75-2.75,4.27,4.27,0,0,0-2.43-1.56,7.14,7.14,0,0,1,.93.07c.3.07.59.23.93.32a4.35,4.35,0,0,0-.36-.38,3.12,3.12,0,0,0-2-.64,5.16,5.16,0,0,0-.67,0,3.71,3.71,0,0,0-2,1L71,4.39a6.2,6.2,0,0,1,4.24-1.58,6,6,0,0,1,3.09.82l-1.2-.06,0,.07A7.29,7.29,0,0,1,81.11,9a7.3,7.3,0,0,0-1.45-1.74,12,12,0,0,1-1.17,9.07,5.8,5.8,0,0,0,1.89-2.86,10,10,0,0,0,.47-3.4,12.58,12.58,0,0,1,1,2.42c.3-2.93.05-5.71-2.31-7.91.22.07.45.14.67.23l.7.3a1.12,1.12,0,0,0-.08-.18,8.68,8.68,0,0,0-4.21-2.65A7.32,7.32,0,0,0,74.81,2a7.74,7.74,0,0,0-3.32.79C71,3,70.57,3.37,70.11,3.64Z"/><path class="cls-1" d="M61.9,2.53h0Z"/><path class="cls-1" d="M73.24,15.62a1.55,1.55,0,0,1-.52,1c-.2-.06-.17-.18-.08-.32a1.36,1.36,0,0,0,.11-1.15c0,.09,0,.18-.08.27a1,1,0,0,1-.5.69.35.35,0,0,1-.14,0s-.07,0-.08,0-.06-.14-.06-.21a.7.7,0,0,1,0-.21,3.05,3.05,0,0,1-.47-.19.31.31,0,0,1,0-.25,2.75,2.75,0,0,1,.44-.16.33.33,0,0,0,0-.19c-.14-.21,0-.35.12-.49a1.41,1.41,0,0,1,.86-.38,1.28,1.28,0,0,1,.88.44c.18.18.33.39.52.6a.86.86,0,0,0,0-.15,4.15,4.15,0,0,0-.69-1.58,1.33,1.33,0,0,0-1.07-.58,1.6,1.6,0,0,0-.55.1A5.52,5.52,0,0,0,70.3,14l-.41.39-.09,0V12.9h-.09c0,.13-.07.28-.12.41-.18.45-.36.9-.55,1.35a.22.22,0,0,1-.22.17l-.11,0a13.51,13.51,0,0,0-3.26-.39,17.31,17.31,0,0,0-3.71.43l-.31.06a9.53,9.53,0,0,0,.51-2.35l-.07,0a2.61,2.61,0,0,0-.17.28,3.24,3.24,0,0,1-1.28,1.41,5,5,0,0,1-1.25.37h0c-.11,0-.27-.14-.36-.24a16.08,16.08,0,0,0-2.5-2.45,5.57,5.57,0,0,0-.93-.58,1.81,1.81,0,0,0-.79-.2,1.74,1.74,0,0,0-1,.3,4.82,4.82,0,0,0-1.62,2s0,.07,0,.14a4.48,4.48,0,0,1,2.24-1,2,2,0,0,1,.82.18,1.73,1.73,0,0,0-.87,1,5,5,0,0,1,.66.26.48.48,0,0,1,.1.33c0,.29-.22.42-.64.42h-.13v.18l-.07,0-.48-1a2.23,2.23,0,0,0,.83,2.21,3,3,0,0,0,1.66.51l.39,0,1.25-.18-.18.26h.06l-.16.17a3.63,3.63,0,0,0-.52,1.28,7.31,7.31,0,0,1,5.34-2.32,10.32,10.32,0,0,1,3,.5l.06-.06L64,15.45c.71-.07,1.41-.11,2.11-.11a13.09,13.09,0,0,1,3,.31l-.66.47v.09a4.94,4.94,0,0,1,1.12-.13,6.64,6.64,0,0,1,3.61,1.28c.22,0,.44.06.66.09A4,4,0,0,0,73.24,15.62Zm-16.83.28.87-.82.28.48Z"/><path class="cls-1" d="M73.78,17.45c-.22,0-.44-.07-.66-.09l.38.24.28,0A1.33,1.33,0,0,0,73.78,17.45Z"/><path class="cls-1" d="M73.78,17.65l-.28,0,.26.18S73.77,17.69,73.78,17.65Z"/><path class="cls-1" d="M54.87,7.57a12.38,12.38,0,0,1,1.47.1l0-.07L55.42,7a9.43,9.43,0,0,1,4.11,2.28,5.37,5.37,0,0,0-.83-1.77,5.8,5.8,0,0,1,1.95,1.37,5.61,5.61,0,0,1,1.21,2,3.84,3.84,0,0,0-1-2.58,5.72,5.72,0,0,0-4-1.9h-.06l1.11.88,0,.08a6.78,6.78,0,0,0-3.61-1,9.71,9.71,0,0,0-1.76.17l1.71.39V7c-2.4.21-4.37,1.53-4.63,3.19A6.22,6.22,0,0,1,54.87,7.57Z"/><path class="cls-1" d="M52.16,14.42h-.09a10.88,10.88,0,0,0-.23,1.37,7.13,7.13,0,0,0,.06,1.73,1.41,1.41,0,0,0,1.42,1.31,2.51,2.51,0,0,0,.63-.09,6.15,6.15,0,0,0,2.22-1.2c.15-.13.31-.26.47-.42l-.59,0A3.65,3.65,0,0,1,52.16,14.42Z"/><path class="cls-1" d="M72.12,37.58,72,37.46a.53.53,0,0,1,.08.26c0,.23,0,.46,0,.69h.09l.06-.72-.08-.07Z"/><path class="cls-1" d="M65.82,38.06h0c0-.17,0-.34-.06-.51s0-.4.28-.41h1.45a.26.26,0,0,1,.29.27.6.6,0,0,0,.13.3,1.22,1.22,0,0,0,.06-.26c0-.2.1-.3.29-.3h0c.54,0,1.09.05,1.62.09.07,0,.15.13.19.21a2.22,2.22,0,0,0,.07.31.55.55,0,0,0,.08-.15.36.36,0,0,1,.4-.38h.07l1,.08a.39.39,0,0,1,.17,0L72,37.1l0,0-.1,0s-.1-.14-.1-.22,0-.44,0-.65h-.09c0,.17,0,.34-.06.51s-.12.37-.35.37h-.07l-.8-.06c-.16,0-.23-.08-.23-.24s0-.43,0-.65h-.07a4.71,4.71,0,0,0-.12.54.33.33,0,0,1-.36.33h0l-1.18,0c-.18,0-.26-.11-.25-.3a.81.81,0,0,0-.09-.44c-.06.14-.14.28-.19.42a.35.35,0,0,1-.36.27h0l-1.41-.06c-.19,0-.27-.1-.3-.29s-.09-.57-.14-.85L64.28,38l0,0,1-.86Z"/><path class="cls-1" d="M71.88,37.37a.33.33,0,0,1,.11.09l.13.12.06,0,.08.07s0-.07,0-.11v-.12l-.15-.13.08-.14v0a.28.28,0,0,0-.15-.1l0,0Z"/><path class="cls-1" d="M64.27,38l0,.05v0l0,0Z"/><path class="cls-1" d="M72.12,37.33l.15.13a.41.41,0,0,0-.06-.29v0Z"/><path class="cls-1" d="M61.63,43.06A1.92,1.92,0,0,0,62,43a3.3,3.3,0,0,0,1.82-1.26.25.25,0,0,0,0-.07s0,0,0-.09a4.56,4.56,0,0,1-2.06.64,2.47,2.47,0,0,1-2-1A1.76,1.76,0,0,0,61.63,43.06Z"/><path class="cls-1" d="M54.15,40.43a.8.8,0,0,0,.54.32h.16a2.2,2.2,0,0,0,1.46-.6s0-.1,0-.15c-.21.07-.42.15-.64.2a1.46,1.46,0,0,1-.4,0,1,1,0,0,1-1-.76,1.43,1.43,0,0,1-.28.38A1,1,0,0,0,54.15,40.43Z"/><path class="cls-1" d="M56.31,40.15l.22-.21h0l-.21.07S56.32,40.1,56.31,40.15Z"/><path class="cls-1" d="M54.25,39.31a.2.2,0,0,0,0-.08l-.07.14a.31.31,0,0,1,0,.1,1.87,1.87,0,0,0-.07.4,1.43,1.43,0,0,0,.28-.38Z"/><path class="cls-1" d="M56.55,39.93h0Z"/><path class="cls-1" d="M54.22,39.23l0,0-.09.28a.31.31,0,0,0,0-.1Z"/><path class="cls-1" d="M71.67,33.64c0,.11-.07.24-.12.4-.18-.32-.33-.65-.69-.65a.62.62,0,0,0-.18,0,.78.78,0,0,0-.5.46,2.45,2.45,0,0,1,.08.29l0,0a.73.73,0,0,1,1.11,0,.24.24,0,0,0,.13.08s.08,0,.13-.09c.19-.28.38-.42.56-.42h.05l.2-.16a.54.54,0,0,1,.05-.11.6.6,0,0,0-.37-.16A.55.55,0,0,0,71.67,33.64Z"/><polygon class="cls-1" points="72.8 33.75 72.8 33.75 72.8 33.75 72.8 33.75"/><path class="cls-1" d="M72.29,33.68h0a.55.55,0,0,1,.27.16l0-.06,0-.07.09-.08,0-.07-.06-.08-.07-.07a.54.54,0,0,0-.05.11Z"/><path class="cls-1" d="M72.76,34l0,0a.56.56,0,0,1,.05.08.13.13,0,0,0,.11.07l0-.09,0,0Z"/><path class="cls-1" d="M72.55,33.71l0,.07,0,.06a1.29,1.29,0,0,1,.17.21l0,0,.1.14,0,0-.08-.36a2.14,2.14,0,0,0-.13-.19l0,.07Z"/><polygon class="cls-1" points="72.8 33.75 72.8 33.75 72.8 33.75 72.8 33.75"/><path class="cls-1" d="M68.93,40.15c-.27,0-.54-.22-.91-.65v.29a2.73,2.73,0,0,0,.3.62.71.71,0,0,0,.6.32.77.77,0,0,0,.58-.27,1.34,1.34,0,0,0,.29-.5,1.8,1.8,0,0,1-.06-.32C69.41,40,69.17,40.15,68.93,40.15Z"/><path class="cls-1" d="M66.83,40.75h0a1,1,0,0,0,.78-.9h0a.66.66,0,0,1-.06-.22c-.33.43-.57.59-.82.59A1.41,1.41,0,0,1,66.1,40a1.23,1.23,0,0,1,0,.19A.83.83,0,0,0,66.83,40.75Z"/><path class="cls-1" d="M66.05,39.93a.83.83,0,0,0,0,.22,1.23,1.23,0,0,0,0-.19Z"/><path class="cls-1" d="M67.64,39.52l-.07.1a.66.66,0,0,0,.06.22h0A1.22,1.22,0,0,0,67.64,39.52Z"/><path class="cls-1" d="M70.26,39.6a1.55,1.55,0,0,1-.07.35,1.47,1.47,0,0,0,.41.62l.81-.1h0a.41.41,0,0,0,0-.09l0-.09-.09-.17a.65.65,0,0,1-.29.07C70.83,40.18,70.58,40,70.26,39.6Z"/><path class="cls-1" d="M70.6,40.57l.11.08a.74.74,0,0,0,.21.07l.3,0a.52.52,0,0,0,.22-.2v0h0Z"/><path class="cls-1" d="M71.5,40.37a2,2,0,0,0,.1-.21L71.54,40l.17-.13,0,0a2.36,2.36,0,0,1-.37.23l.09.17Z"/><path class="cls-1" d="M71.6,40.16c0-.08.07-.16.11-.25l-.17.13Z"/><path class="cls-1" d="M71,40.73a.46.46,0,0,0,.2,0l-.3,0Z"/><path class="cls-1" d="M70.19,40a1.55,1.55,0,0,0,.07-.35l-.15-.21A1.14,1.14,0,0,0,70.19,40Z"/><path class="cls-1" d="M67.87,34.25a1.12,1.12,0,0,0-.56-1,8.17,8.17,0,0,1-.84.14,1.35,1.35,0,0,0-.28.3h0l.11.22-.11.14a1.39,1.39,0,0,1,.83-.41C67.3,33.69,67.57,33.85,67.87,34.25Z"/><path class="cls-1" d="M67,33.23h0a1,1,0,0,0-.55.2,8.17,8.17,0,0,0,.84-.14A.88.88,0,0,0,67,33.23Z"/><path class="cls-1" d="M66.2,33.74h0a1.18,1.18,0,0,0-.11.19v0l0,0a1.42,1.42,0,0,0-.11.35l.25-.23.11-.14Z"/><path class="cls-1" d="M66.08,33.92a.14.14,0,0,0,0,.06l0,0Z"/><path class="cls-1" d="M69.16,33.44h0a1,1,0,0,0-.85,1v0a1.49,1.49,0,0,1,.92-.51.87.87,0,0,1,.51.19,2.68,2.68,0,0,1,.07-.27A.73.73,0,0,0,69.16,33.44Z"/><path class="cls-1" d="M69.88,34.19a2.39,2.39,0,0,0-.11-.32,2.68,2.68,0,0,0-.07.27l.17.16S69.88,34.23,69.88,34.19Z"/><path class="cls-1" d="M69.91,34.35l0-.16s0,.07,0,.11Z"/><path class="cls-1" d="M68.27,34.46h0v0Z"/><path class="cls-1" d="M54,30.29l0,0-.09-.09,0,.06Z"/><path class="cls-1" d="M54.36,29.66l0,.21a.77.77,0,0,1,.47-.18.65.65,0,0,1,.29.07,4.16,4.16,0,0,1,1,.68l.07-.1a.44.44,0,0,0-.05-.15q-.7-.5-1.35-1.05a.72.72,0,0,0-.47.24A1.4,1.4,0,0,1,54.36,29.66Z"/><path class="cls-1" d="M54.12,30.12,54,30a1.08,1.08,0,0,0-.08.19l.09.09Z"/><path class="cls-1" d="M55.91,29.8c-.28-.2-.54-.4-.8-.62l-.11,0h-.23q.65.55,1.35,1.05A1.86,1.86,0,0,0,55.91,29.8Z"/><path class="cls-1" d="M56.19,30.51a.52.52,0,0,0,0-.17l-.07.1Z"/><path class="cls-1" d="M54.2,30a1.19,1.19,0,0,1,.18-.15l0-.21a1.4,1.4,0,0,0-.06-.28.36.36,0,0,0-.08.12.39.39,0,0,0-.06.11.2.2,0,0,0,0,.07Z"/><path class="cls-1" d="M55.11,29.18c.26.22.52.42.8.62A1.75,1.75,0,0,0,55.11,29.18Z"/><path class="cls-1" d="M54.2,30l0-.34a.2.2,0,0,1,0-.07A2.48,2.48,0,0,0,54,30l.13.14Z"/><path class="cls-1" d="M11.57,87.73c-1.33.21-2.69.44-4,.67l-.09,0,.07.41.78-.14.83,4.84-.68.12-.09,0,.07.41.09,0,1.77-.3h.09l-.07-.42-.09,0-.68.11L9.2,91.39l1.27-.22h.09l-.06-.41h-.09L9.13,91l-.4-2.36,2.58-.43.17,1.06.41-.07-.23-1.47Z"/><path class="cls-1" d="M14.85,85.58,16.6,85l.09,0-.14-.4-.08,0-1.76.57-.09,0,.15.39Z"/><path class="cls-1" d="M18.68,86.69l-1,.14h-.09l.65,4.75c-.15.2-.31.4-.46.61L16,92.45,15.37,92l-.7-4.74-.09,0-1,.15h-.09l.06.42.09,0,.69-.1L15,92.22l0,0,.84.62,0,0h0l2-.29h0l0,0,.63-.83,0,0L18,87.2l.69-.1h.09l-.05-.41Z"/><path class="cls-1" d="M25.29,85.89c-1.59.17-3.2.36-4.78.56h-.09l.19,1.48.42-.06-.14-1,1.85-.23.58,4.88-.68.08h-.09l.05.42h.09q.89-.12,1.77-.21h.09l-.05-.42h-.09l-.68.08-.57-4.88L25,86.34l.11,1.06.42-.05-.16-1.47Z"/><path class="cls-1" d="M31.71,90.24l-.13-1.5,0,0-.61-.5.51-.6,0,0-.13-1.5,0,0-.81-.66,0,0h0l-3.3.31H27l0,.42h.09l.7-.07.48,4.89-.77.08.05.41h.09L31,91.1h0l0,0,.67-.8ZM30.34,85.8l.6.49.1,1.17-.5.58-2,.2L28.29,86Zm-1.57,5.09-.22-2.24,2-.19.59.49.1,1.16-.49.59Z"/><path class="cls-1" d="M33.7,90.1l.79.68,0,0h0l2-.15h0l0,0,.68-.78,0,0-.28-4.17,0,0-.8-.68,0,0h0c-.7,0-1.39.09-2.08.15h0l0,0-.69.79,0,0,.33,4.16Zm2.38-4.76.59.5.26,3.83-.51.57-1.76.13-.59-.49-.3-3.82.51-.59Z"/><path class="cls-1" d="M39,85.15l.7,0L39.94,90l-.77,0,0,.42h.09c1.32-.08,2.66-.15,4-.21h.09l-.07-1.48-.42,0,0,1.06L40.36,90l-.28-4.9.7,0h.09l0-.42h-.1l-1.81.11h-.09l0,.42Z"/><path class="cls-1" d="M54.75,89.57c-.3-1.75-.6-3.52-.9-5.25v-.08h-.08l-1.75,0h-.07v.08c-.27,1.75-.54,3.52-.79,5.26l-.67,0V90h1l0-.08.21-1.53,2.38,0c.08.51.17,1,.25,1.52V90h1v-.41ZM53.5,84.66c.18,1.1.37,2.21.55,3.31L51.8,88c.16-1.1.33-2.21.49-3.32Z"/><path class="cls-1" d="M62,90.05H62l1,0h.09v-.42h-.77l.12-4.92.7,0h.09v-.41h-.09l-1,0h-.05l0,0c-.68,1.14-1.36,2.28-2,3.4-.63-1.16-1.27-2.32-1.91-3.46l0-.05H57.05v.41h.78l0,4.91H57V90h1.19l0-4.75c.6,1.07,1.2,2.16,1.78,3.24l.07.14.08-.14c.62-1.06,1.25-2.13,1.88-3.18Z"/><path class="cls-1" d="M65,84.39h-.09l0,.42H65l.7,0-.18,4.91-.68,0h-.09v.42h.09l4,.16h.09L69,88.82l-.42,0,0,1.06L66,89.75,66,87.51l1.28,0h.09l0-.41h-.09l-1.29,0,.08-2.25,2.61.11,0,1.07.42,0,.07-1.48h-.09C67.75,84.49,66.38,84.43,65,84.39Z"/><path class="cls-1" d="M74.51,90.62h.07l.76.05h.09l0-.42-.61,0c-.14-.72-.29-1.45-.44-2.17l.62-.54,0,0,.13-1.8,0,0-.7-.78,0,0h0c-1.1-.08-2.22-.15-3.31-.21H71l0,.42h.09l.7,0L71.48,90l-.68,0h-.09l0,.42h.09l1,.06h.09L72,88.09l2,.13c.16.78.33,1.56.48,2.34Zm-2.32-5.48,2,.12.51.58-.1,1.46-.58.5-2-.13Z"/><path class="cls-1" d="M78.9,91H79l0-.42h-.09l-.68-.05.4-4.9.69.06h.09l0-.42h-.09l-1.82-.15h-.09l0,.41h.09l.7.06-.4,4.89-.68,0h-.09l0,.42h.09Z"/><path class="cls-1" d="M82.13,85.48h0l0,0-.82.66,0,0-.38,4.16,0,0,.67.8,0,0h0l2.76.27h.09L84.59,90,84.17,90,84.06,91l-2.3-.23-.49-.59.35-3.82.6-.48,2.35.23-.11,1.06.42,0L85,85.77h-.09C84,85.66,83.06,85.56,82.13,85.48Z"/><path class="cls-1" d="M90.3,86.45v-.08h-.08l-1.74-.21h-.07l0,.07c-.49,1.7-1,3.42-1.47,5.13l-.66-.08-.05.42h.09l.86.09h.08l0-.07c.14-.5.28-1,.41-1.49l2.37.29c0,.51,0,1,0,1.54v.08h.08l.86.11h.09l0-.42-.66-.08C90.45,90,90.38,88.21,90.3,86.45Zm-.4.29C90,87.86,90,89,90,90.1l-2.24-.27c.3-1.08.61-2.16.92-3.23Z"/><path class="cls-1" d="M97.37,87.34l-.09,0-.72,4.86c-.59-1.72-1.2-3.46-1.81-5.17l0-.06h-.06l-1.09-.15-.09,0-.06.42.78.1-.67,4.87-.68-.09h-.09l-.06.41h.09l1,.14h.09l.68-4.86c.61,1.71,1.21,3.45,1.8,5.17v0h.06l1.07.17h.09l.06-.41-.09,0-.67-.1.73-4.86.69.11h.09l.06-.41-.09,0Z"/><path class="cls-1" d="M103.86,89.16l-.62-.85,0,0h0l-2.06-.34h0l0,0c-.29.2-.58.4-.86.61l0,0-.67,4.12,0,0,.62.84,0,0h0l2,.34h0l0,0,.85-.6,0,0,.71-4.07v0Zm-3.47,4-.45-.62.62-3.79.63-.44,1.79.3.45.63-.65,3.77-.63.44Z"/><path class="cls-1" d="M29.93,98.7l.13.82-1.74.28-.48-.33-.5-2.91c.12-.15.23-.31.35-.47l1.79-.29.13.82.36-.06-.18-1.18-.09,0-2.18.35h0l0,0-.49.66,0,0,.56,3.2,0,0,.66.46,0,0h0l2.12-.35h.09l-.18-1.18Z"/><path class="cls-1" d="M34.54,98.05l.1.81-1.93.26-.52-3.72.52-.07.09,0,0-.36h-.09l-1.41.2-.09,0,.05.36.09,0,.52-.07.53,3.72-.51.08h-.09l.06.36h.09c1-.15,2-.29,3.06-.42h.09L34.9,98Z"/><path class="cls-1" d="M39.49,94.18l-.8.08H38.6L39,98l-.37.44-1.35.14-.45-.35-.42-3.7h-.09l-.8.09h-.09l0,.37h.09L36,94.9l.4,3.49,0,0,.64.5,0,0h0l1.57-.17h0l0,0,.51-.62,0,0L39,94.59l.52,0h.09l0-.36Z"/><path class="cls-1" d="M44.3,96.47l-.44-.39.39-.43,0,0-.07-1.19,0,0-.62-.53,0,0h0c-.85.06-1.72.12-2.58.2h-.09l0,.37h.09l.53,0,.3,3.75-.6,0,0,.37h.09c.83-.07,1.67-.14,2.51-.19h0l0,0,.53-.61,0,0-.08-1.18Zm-.9-2.24.44.38.06.88-.39.43L42,96l-.13-1.69C42.35,94.3,42.87,94.27,43.4,94.23Zm-1.28,3.86L42,96.4l1.55-.11.43.37.06.89-.38.43Z"/><path class="cls-1" d="M53.84,93.5h-.05l0,0c-.5.87-1,1.76-1.48,2.64-.51-.87-1-1.74-1.55-2.6l0,0h-.82l-.09,0v.35h.61l.09,3.75-.51,0h-.09V98H50l.78,0h.09l-.08-3.63c.48.8,1,1.61,1.42,2.41l.08.14.07-.15c.45-.81.9-1.63,1.36-2.43V98h1v-.36h-.6V93.86h.61V93.5h-.87Z"/><path class="cls-1" d="M58.45,93.58l0,0h0l-1.62,0h0l0,0-.6.56,0,0,0,3.24,0,0c.19.19.38.38.56.58l0,0h0l1.57,0h0l0,0,.58-.55,0,0,.1-3.24,0,0Zm-.18.33.4.42-.08,2.94-.42.4-1.35,0-.41-.41,0-3h0l.43-.4Z"/><path class="cls-1" d="M63.17,96.25l.48-.41,0,0,.09-1.41,0,0-.55-.6,0,0h0l-2.58-.12h-.09l0,.37h.09L61,94l-.16,3.76-.6,0v.36h.09l.78,0h.09l.08-1.83,1.52.07.39,1.8v.06h.07l.59,0H64l0-.36-.47,0ZM61.41,94,63,94.1l.39.43-.06,1.11-.44.38L61.33,96Z"/><path class="cls-1" d="M65.59,93.9h-.1l0,.36h.09l.52,0-.28,3.75-.51,0H65.2l0,.36h.09c1,.07,2.06.15,3.07.24h.09l.11-1.18-.37,0-.07.82-1.94-.16.13-1.7,1,.08h.09l0-.36H67.3l-1-.08.13-1.69,2,.16-.08.82.37,0,.11-1.19h-.09C67.7,94.06,66.64,94,65.59,93.9Z"/><path class="cls-1" d="M72.69,98.72l-1.93-.22.4-3.74.52.06h.09l0-.37h-.09l-1.41-.15h-.09l0,.37h.09l.52,0-.39,3.74-.51,0H69.8l0,.34h.09c1,.1,2.05.22,3.07.34H73l.14-1.18-.36,0Z"/><path class="cls-1" d="M75,94.85h-.09l-.05.36H75l.52.07L75,99l-.5-.07h-.09l0,.36h.09l1.37.19h.09l0-.36h-.09l-.5-.07.51-3.73.52.07.08,0,.06-.36-.09,0Z"/><path class="cls-1" d="M80.46,95.74v-.08h-.07L79,95.43H79l0,.07c-.43,1.29-.87,2.6-1.29,3.9l-.51-.08-.06.36.09,0,.67.1h.07l0-.07c.12-.38.24-.75.35-1.12l1.8.29c0,.39,0,.78,0,1.17v.08h.07l.67.12h.09l.06-.36-.52-.09C80.46,98.48,80.46,97.1,80.46,95.74ZM80.1,96c0,.85,0,1.71,0,2.56q-.84-.15-1.68-.27c.26-.81.53-1.62.8-2.43Z"/></g></g></svg>