<svg xmlns="http://www.w3.org/2000/svg" viewBox="0 0 13.38 14.26"><defs><style>.cls-1{fill:#302d5c;}</style></defs><title>phone</title><g id="Capa_2" data-name="Capa 2"><g id="Capa_1-2" data-name="Capa 1"><path class="cls-1" d="M12.27,9.57l-.47-.41c-.46-.39-1.85-1.58-3.21-.4l-.46.41A1,1,0,0,0,8,9.35c-.17.19-.26.25-.36.25s-.72-.12-1.92-1.5S4.44,6.14,4.46,6s.07-.18.3-.32A2,2,0,0,0,5,5.52l.47-.4c1.35-1.18.37-2.72,0-3.23l-.33-.53A2.64,2.64,0,0,0,3.51,0a1.62,1.62,0,0,0-1.3.45L1.84.78a4.57,4.57,0,0,0-1.78,3c-.31,2,.62,4.32,2.76,6.78s4.23,3.68,6.28,3.68h.05A4.57,4.57,0,0,0,12.35,13l.41-.36a1.58,1.58,0,0,0,.62-1.22A2.56,2.56,0,0,0,12.27,9.57ZM1.36,4A3.33,3.33,0,0,1,2.67,1.81l.41-.36c.15-.13.22-.13.23-.13h0s.27.07.7.75l.34.53c.7,1.09.41,1.34.2,1.52l-.46.41.17.2h0L4,4.58a1.77,1.77,0,0,0-.87,1.24C3,6.64,3.54,7.67,4.67,9s2.09,1.94,2.91,1.95A1.79,1.79,0,0,0,9,10.21L9,10.16l.45-.4c.22-.18.51-.43,1.49.41l.47.4c.62.53.65.76.65.8s-.06.13-.16.22l-.46.4a3.22,3.22,0,0,1-2.3.95c-1.65,0-3.46-1.07-5.32-3.22S1.12,5.64,1.36,4ZM9.1,14Z"/></g></g></svg>